<svg width="63" height="53" viewBox="0 0 63 53" fill="none" xmlns="http://www.w3.org/2000/svg">
<path d="M35.6415 50.1487C32.3416 44.1398 28.9516 47.8936 27.6824 50.1487C21.0607 55.9602 14.1633 50.1487 14.1633 44.9914V38.9321C5.87919 39.3336 1.54581 28.4399 0.414638 22.9429C-0.418495 19.379 -0.557352 11.3346 5.55228 7.66883C16.3275 1.78136 25.551 13.5173 28.8159 20.1213C29.3561 20.8917 31.0372 21.9703 33.4399 20.1213C38.0459 7.01123 48.2931 4.74244 52.8409 5.24679C56.0691 5.63808 62.4373 9.414 62.0851 21.3874C61.733 33.3608 53.2512 38.0728 49.0544 38.9321V44.9914C48.735 52.6559 37.7158 53.9258 35.6415 50.1487Z" fill="#D1C699"/>
<path d="M14.9639 2.43626C18.7022 -1.15502 26.9859 3.38039 28.0734 16.7413C30.3913 20.4587 31.196 20.9941 31.3086 20.7971C32.2373 19.613 34.0949 17.1442 34.0949 16.7413C34.0949 16.2377 38.5654 -3.09152 46.7112 2.43626" stroke="#D1C699" stroke-width="2.5" stroke-linecap="round" stroke-linejoin="round"/>
<circle cx="14.2042" cy="21.817" r="3.82533" fill="#D1C699"/>
<circle cx="47.8956" cy="20.8322" r="3.82533" fill="#D1C699"/>
<circle cx="17.6854" cy="31.7762" r="3.04085" fill="#D1C699"/>
<circle cx="44.8553" cy="31.7762" r="3.04085" fill="#D1C699"/>
</svg>
