<svg width="38" height="38" viewBox="0 0 38 38" fill="none" xmlns="http://www.w3.org/2000/svg">
<path d="M18.7871 0C29.1627 0.000153589 37.5732 8.41153 37.5732 18.7871C37.5731 29.1626 29.1626 37.5731 18.7871 37.5732C8.41153 37.5732 0.000153599 29.1627 0 18.7871C0 8.41143 8.41143 0 18.7871 0ZM29.5693 10.1621C29.0375 9.75417 28.2385 10.2116 27.9053 10.4912C24.3342 13.514 17.0126 19.7054 16.293 20.292C15.5745 20.8776 14.8522 20.6023 14.5811 20.3916C13.9393 19.6386 12.4776 17.8899 11.7607 16.917C11.0438 15.9439 10.2313 16.5115 9.91504 16.917L7.33203 19.376C6.68103 19.9956 7.13581 20.6583 7.44434 20.9121C8.76021 22.1837 11.7154 25.0488 13.0117 26.3379C14.3081 27.6271 15.7394 26.875 16.293 26.3379C20.2961 22.0474 28.4894 13.2748 29.2373 12.5078C30.1719 11.5492 30.234 10.672 29.5693 10.1621Z" fill="#F4F1D1"/>
</svg>
