<svg width="72" height="72" viewBox="0 0 72 72" fill="none" xmlns="http://www.w3.org/2000/svg">
<ellipse cx="35.7691" cy="35.5284" rx="35.7691" ry="35.5284" transform="matrix(-1 0 0 1 71.5381 0)" fill="#B3BFFF"/>
<path d="M65.1083 42.561C67.6851 47.0494 66.9958 51.5449 66.329 53.2317C62.4061 62.1453 51.765 67.5828 46.9348 69.1874V65.4602C46.3233 65.2117 44.7333 64.4166 43.2657 63.2239C41.4312 61.733 40.5556 58.7098 43.2657 57.4674C45.4338 56.4735 45.3921 54.3752 45.1003 53.4503C43.9606 51.6005 42.7047 47.529 45.1003 46.6585C47.8354 45.6645 51.3938 47.624 52.8311 48.7279C56.0988 50.3972 58.2154 46.3341 57.6013 45.2798C56.3289 43.0951 55.8187 40.7528 55.8187 40.3818C55.8187 40.0109 55.772 35.9769 59.4132 35.5596C62.3261 35.2258 63.6768 37.6461 63.988 38.898C64.0658 39.5935 64.3988 41.2998 65.1083 42.561Z" fill="#5ABF98"/>
<path d="M20.9488 63.8311C22.585 66.487 20.6328 67.0188 19.4522 66.9527C9.4089 62.7053 3.72839 52.2874 2.14355 47.6094C3.97949 48.5394 7.49443 50.1011 8.64011 49.9354C10.9575 49.6001 13.766 49.376 14.8404 49.5208C16.8687 50.3267 17.7846 52.0851 17.7846 53.014C17.7846 54.5922 14.8547 56.0905 13.0669 56.6959C11.3508 58.004 13.7765 60.4604 15.3106 61.1987C16.7498 61.7171 20.1762 62.5771 20.9488 63.8311Z" fill="#5ABF98"/>
<path d="M67.8727 25.8799C69.3642 25.7547 69.6145 24.1063 69.5533 23.2977C64.071 9.99624 53.462 3.7423 48.8427 2.27802C46.8126 1.64714 42.4953 0.698421 41.4668 1.95062C40.1813 3.51587 40.7619 4.79279 41.6927 6.98333C42.4895 11.5236 39.2058 10.6579 37.1218 10.6579C34.9426 10.1129 32.4869 10.1708 31.3086 10.3422C30.4068 10.6671 28.7438 11.7896 29.3064 13.681C30.0096 16.0452 34.4454 17.2242 39.2058 18.0869C43.0141 18.7771 46.4247 22.0832 47.6539 23.65C48.8041 25.2444 51.4002 28.275 52.5833 27.6422C53.7663 27.0095 53.7512 23.0009 53.5957 21.0757C53.6712 20.6901 54.0856 20.2162 54.7082 20.5211C55.2237 21.0148 56.7466 21.2042 57.1377 20.7806C57.9079 19.8482 57.1979 18.0212 56.7466 17.2242C56.4156 16.1982 56.3313 14.164 58.6421 14.2357C60.9528 14.3074 63.4394 18.9827 64.4089 21.4309C64.9421 22.966 66.3812 26.0051 67.8727 25.8799Z" fill="#5ABF98"/>
<path d="M12.6603 11.602C11.517 11.5817 9.6125 12.3489 8.80318 12.735C1.55191 20.2224 -0.210325 32.0245 0.0195141 33.5769C0.249354 35.1293 2.18001 36.5447 3.7889 35.6315C8.06393 32.2984 4.93991 28.1242 4.1095 27.0388C2.67835 24.7075 4.18105 24.7407 5.1113 25.0487C5.92228 25.5462 7.94497 26.5413 9.54786 26.5413C15.988 25.8305 16.1055 18.9023 16.0545 15.8605C16.0034 12.8187 14.0894 11.6273 12.6603 11.602Z" fill="#5ABF98"/>
<path d="M27.8179 23.5645C30.3073 26.1005 28.8552 27.6327 27.8179 28.0818C27.2761 28.3164 26.9915 28.5049 26.9915 29.2659C26.9915 30.8997 26.7306 31.6357 26.2087 31.8764C25.6015 32.1701 24.2913 33.0904 23.9083 34.4218C23.5253 35.7532 22.6317 35.6105 22.2328 35.3728C21.9934 35.7426 21.0041 35.4996 18.9615 31.5688C16.919 27.638 20.2913 23.9608 22.2328 22.6135C23.0573 21.8739 25.3285 21.0285 27.8179 23.5645Z" fill="#5ABF98"/>
<path d="M16.8488 41.3859C19.2907 40.8535 18.1641 37.3682 17.2955 35.6921C16.3368 34.1427 15.5088 33.7695 14.3921 35.1005C13.4987 36.1653 13.2201 37.8905 13.1208 38.6546C13.0067 39.5332 14.407 41.9183 16.8488 41.3859Z" fill="#5ABF98"/>
<path d="M7.25474 39.3419C8.97289 37.5743 11.4737 40.2569 11.8594 41.8276C10.7408 44.5861 8.6925 44.3641 7.82985 43.8404C7.68607 43.9118 5.24185 41.4127 7.25474 39.3419Z" fill="#5ABF98"/>
</svg>
