<svg width="71" height="42" viewBox="0 0 71 42" fill="none" xmlns="http://www.w3.org/2000/svg">
<path d="M47.8574 41.2276H30.6416C34.3991 34.8868 43.5782 23.3939 50.2347 28.1486C56.8913 32.9032 51.4234 38.849 47.8574 41.2276Z" fill="#D1C699"/>
<path d="M48.076 0.902693C40.6558 -1.33134 32.4844 1.10216 29.3262 2.59816C34.5788 6.3548 46.1412 13.7883 50.3699 13.4691C55.6558 13.0702 57.3513 3.69524 48.076 0.902693Z" fill="#D1C699"/>
<path d="M27.1582 2.59131C39.8201 2.59131 50.4579 8.75499 53.4658 17.0942C54.5346 17.1475 56.0962 16.9327 57.0371 15.8062C58.5148 14.0369 62.8691 10.0962 66.0586 10.0962C68.236 10.0962 70.4133 9.93579 70.4912 13.7954C70.5431 15.3502 70.2576 18.7979 68.7021 20.1489C67.1472 21.5 68.0541 23.5297 68.7021 24.3755C70.1674 26.3687 72.3285 30.9322 69.25 33.2427C66.1715 35.553 62.1743 33.6495 60.5605 32.4087L56.0303 29.0708C55.3848 28.459 53.9283 27.6358 52.6787 28.5298C48.8794 35.938 38.8876 41.228 27.1582 41.228C12.1592 41.228 0.000157967 32.5787 0 21.9097C0 11.2406 12.1591 2.59136 27.1582 2.59131ZM12.2871 15.0229C9.73791 15.023 7.6709 17.09 7.6709 19.6392C7.67095 22.1883 9.73794 24.2544 12.2871 24.2544C14.8363 24.2544 16.9033 22.1883 16.9033 19.6392C16.9033 17.09 14.8363 15.0229 12.2871 15.0229Z" fill="#D1C699"/>
<path d="M28.9586 20.3804L19.4195 25.1465C20.0112 26.624 18.5041 31.9551 17.4903 34.7324C19.4075 36.2337 26.6851 35.8489 27.6301 35.1678C35.6264 29.4047 31.8475 22.9082 28.9586 20.3804Z" fill="#D1C699"/>
</svg>
