<svg width="94" height="113" viewBox="0 0 94 113" fill="none" xmlns="http://www.w3.org/2000/svg">
<path d="M50.115 92.5455L51.7855 86.5316L39.0897 81.186L36.751 88.3692L50.115 92.5455Z" fill="#FFD130"/>
<path d="M36.751 102.903L50.4491 96.2206L53.1219 101.9L40.9272 110.086L36.751 102.903Z" fill="#FFD130"/>
<path d="M65.1495 103.905H60.4721V112.759H65.4836L65.1495 103.905Z" fill="#FFD130"/>
<path d="M70.4947 86.8657C67.8208 87.515 65.4095 87.535 61.8926 87.3622C59.9481 87.2666 57.9314 87.1434 56.1235 87.8657C55.6157 88.0685 55.196 88.3143 54.8156 88.624C54.0452 89.2511 53.3482 90.5083 53.1085 91.4723C52.605 93.4967 53.3569 95.3772 54.7782 96.9042C54.9681 97.1083 55.1879 97.3066 55.452 97.5013C56.6703 98.3995 57.7481 98.8303 59.084 99.5418C61.1573 100.646 63.8511 101.28 66.1998 101.318C68.5681 101.356 70.5085 101.335 73.1675 101.232C76.3748 100.963 78.0406 100.686 80.5177 99.7286C83.2501 98.7334 84.6909 97.9835 87.0327 96.2206C87.4508 95.9184 87.8212 95.6358 88.1592 95.3595C90.5914 93.372 92.2042 90.2296 91.376 87.1998C90.8967 85.3771 90.5333 84.3637 88.5361 82.6895C88.497 82.6631 88.4581 82.6371 88.4194 82.6116C85.3723 80.5979 81.1458 81.3464 78.346 83.6918C75.5 86.2886 73.664 86.262 70.4947 86.8657Z" fill="#493C34"/>
<path d="M7.98461 56.4922C7.06036 55.1939 6.35155 53.7491 6.29777 52.1563C6.21861 49.8117 7.20301 47.5171 8.41918 45.5109C10.2068 42.5622 11.9024 40.8323 14.1446 39.4022C16.7294 37.7536 20.3174 36.9468 23.3807 37.07C26.0952 37.1792 28.1671 38.2439 30.3089 39.9152C33.2641 42.2213 34.776 44.4278 36.1223 48.1105C36.7022 50.6654 36.6635 52.0509 36.1223 54.4584L36.1072 54.4839C33.7328 58.5037 32.607 60.4097 27.1016 62.6439C21.8014 64.1551 18.6693 63.5042 14.7446 61.9757C11.5551 60.2646 9.62123 58.7911 7.98461 56.4922Z" fill="#FFFAE6"/>
<path fill-rule="evenodd" clip-rule="evenodd" d="M32.3501 3.95044C31.7257 2.3775 29.5517 2.24266 28.7377 3.72639L15.0154 28.7401C14.8383 29.063 14.5793 29.3259 14.2644 29.5169C-1.32588 38.9701 -13.0568 71.7182 29.0021 84.9895C29.9881 85.3006 31.0696 84.7894 31.4668 83.8349C33.73 78.396 35.1796 76.6091 37.4012 75.2413C37.6596 75.0822 37.9562 74.9945 38.259 74.974C41.815 74.7324 44.2921 74.742 56.7301 82.7414C57.0127 82.9232 57.3448 83.0368 57.6799 83.0609C63.4257 83.4732 66.9338 83.6427 72.173 82.4046C72.3081 82.3727 72.4435 82.3244 72.5687 82.2645C85.317 76.166 90.294 71.4984 93.212 60.1536C93.2429 60.0338 93.2626 59.9079 93.2707 59.7845C93.5852 55.0122 94.3042 51.6708 92.9172 46.7741C90.7927 39.2735 86.7204 34.9872 80.6721 31.0293C80.3782 30.8369 80.1366 30.5729 79.9755 30.2608L66.2903 3.74204C65.5172 2.24412 63.3516 2.31562 62.679 3.86126L55.3603 20.6816C55.0427 21.4115 54.3224 21.8836 53.5264 21.8836H40.8265C40.0068 21.8836 39.2701 21.3834 38.9676 20.6215L32.3501 3.95044ZM8.41918 45.5109C7.20301 47.5171 6.21861 49.8117 6.29777 52.1563C6.35155 53.7491 7.06036 55.1939 7.98461 56.4922C9.62123 58.7911 11.5551 60.2646 14.7446 61.9757C18.6693 63.5042 21.8014 64.1551 27.1016 62.6439C32.607 60.4097 33.7328 58.5037 36.1072 54.4839L36.1223 54.4584C36.6635 52.0509 36.7022 50.6654 36.1223 48.1105C34.776 44.4278 33.2641 42.2213 30.3089 39.9152C28.1671 38.2439 26.0952 37.1792 23.3807 37.07C20.3174 36.9468 16.7294 37.7536 14.1446 39.4022C11.9024 40.8323 10.2068 42.5622 8.41918 45.5109Z" fill="#493C34"/>
<path d="M7.57065 55.8834C6.96883 54.9584 6.48232 53.9408 6.3505 52.8452C6.27783 52.2412 6.27774 51.6425 6.32975 51.0252C6.46614 49.4065 7.07124 47.8627 7.87083 46.4486C10.136 42.4428 12.1564 40.4857 15.1775 38.7844C17.1549 37.6709 19.4062 37.1204 21.6749 37.0628C22.5032 37.0418 23.2399 37.0515 23.9426 37.1008C25.9486 37.2417 27.8284 38.0976 29.4577 39.2764C32.9853 41.8286 34.6524 44.0898 36.1223 48.1105C36.7022 50.6654 36.6635 52.0509 36.1223 54.4584L36.1072 54.4839C33.7328 58.5037 32.607 60.4097 27.1016 62.6439C21.8014 64.1551 18.6693 63.5042 14.7446 61.9757C11.2823 60.1182 9.29969 58.5407 7.57065 55.8834Z" fill="#FFFAE6"/>
<path d="M43.9333 68.3229C42.3634 67.9546 39.5695 65.9118 37.7293 64.4613C36.5634 63.5422 34.6102 62.7024 33.8533 63.9796C33.2681 64.9669 33.5883 66.2255 34.1276 67.2386C35.5835 69.9733 37.6246 71.078 42.2628 72.4991C45.4759 73.065 47.4385 73.1735 49.9737 72.7736C50.9606 72.6179 51.9183 72.3114 52.8275 71.8975C54.937 70.937 56.4907 69.9167 58.5343 66.7093C59.1578 65.7307 59.4728 64.4781 58.6952 63.6169C58.3026 63.1821 57.674 62.8789 57.0903 62.8298C56.7588 62.8019 56.4845 62.8226 56.2354 62.8954C55.5228 63.1037 55.098 63.8011 54.6848 64.418C54.0564 65.356 53.4766 66.0919 52.7267 66.7597C51.3598 67.977 49.5242 68.5251 47.6963 68.6196C46.4753 68.6828 45.3751 68.6051 43.9333 68.3229Z" fill="#FFFAE6"/>
<path d="M26.734 44.6853C25.4924 42.9998 22.8562 43.0863 21.5707 44.7386C21.3247 45.0548 21.1002 45.4176 20.8817 45.8427C20.5146 46.5565 20.289 47.3373 20.1919 48.1341C19.9848 49.8334 20.1512 50.9126 20.3806 52.2869C20.8455 53.8885 21.2726 54.961 22.0644 55.7832C22.5478 56.2852 23.2582 56.4632 23.9551 56.4632C24.5684 56.4632 25.1918 56.3309 25.6715 55.9487C26.0936 55.6124 26.4582 55.189 26.8605 54.5017C27.3793 53.6155 27.6559 52.6074 27.7427 51.5841C27.8511 50.3054 27.8343 49.144 27.7074 47.6058C27.6255 46.6131 27.3248 45.4873 26.734 44.6853Z" fill="#493C34" stroke="#493C34"/>
<path d="M85.0221 55.8568C85.9464 54.5585 86.6552 53.1137 86.709 51.5209C86.7881 49.1763 85.8037 46.8817 84.5876 44.8755C82.8 41.9268 81.1044 40.1969 78.8622 38.7668C76.2774 37.1183 72.6894 36.3115 69.626 36.4346C66.9115 36.5438 64.8397 37.6085 62.6979 39.2798C59.7426 41.5859 58.2308 43.7924 56.8845 47.4751C56.3046 50.03 56.3432 51.4155 56.8845 53.823L56.8995 53.8485C59.2739 57.8683 60.3998 59.7743 65.9052 62.0085C71.2054 63.5197 74.3375 62.8688 78.2622 61.3403C81.4516 59.6292 83.3855 58.1557 85.0221 55.8568Z" fill="#FFFAE6"/>
<path d="M66.5638 44.5178C67.8054 42.8323 70.4417 42.9189 71.7272 44.5712C71.9732 44.8873 72.1976 45.2501 72.4162 45.6752C72.7833 46.389 73.0089 47.1698 73.106 47.9666C73.313 49.6659 73.1467 50.7451 72.9172 52.1195C72.4524 53.7211 72.0252 54.7935 71.2335 55.6157C70.7501 56.1177 70.0397 56.2957 69.3427 56.2957C68.7294 56.2957 68.106 56.1634 67.6263 55.7812C67.2042 55.4449 66.8397 55.0215 66.4373 54.3342C65.9185 53.448 65.6419 52.4399 65.5552 51.4167C65.4468 50.1379 65.4635 48.9765 65.5905 47.4383C65.6724 46.4456 65.973 45.3198 66.5638 44.5178Z" fill="#493C34" stroke="#493C34"/>
</svg>
