<svg width="38" height="38" viewBox="0 0 38 38" fill="none" xmlns="http://www.w3.org/2000/svg">
<path d="M18.7881 0C29.1645 0 37.5769 8.41168 37.5771 18.7881C37.5771 29.1647 29.1647 37.5771 18.7881 37.5771C8.41168 37.5769 0 29.1645 0 18.7881C0.000216464 8.41181 8.41181 0.000216477 18.7881 0ZM18.5361 24.4814C18.0882 24.4814 17.6963 24.6495 17.3604 24.9854C17.0404 25.3053 16.88 25.6973 16.8799 26.1611C16.8799 26.6091 17.0404 27.0019 17.3604 27.3379C17.6963 27.6577 18.0883 27.8174 18.5361 27.8174C19 27.8174 19.392 27.6577 19.7119 27.3379C20.0479 27.0019 20.2158 26.6091 20.2158 26.1611C20.2157 25.6973 20.0478 25.3053 19.7119 24.9854C19.392 24.6495 19 24.4815 18.5361 24.4814ZM18.7764 8.68945C17.5924 8.68945 16.5522 8.93762 15.6562 9.43359C14.7762 9.91359 14.0878 10.5778 13.5918 11.4258C13.1119 12.2737 12.8721 13.2581 12.8721 14.3779C12.8722 14.7297 12.9841 15.0257 13.208 15.2656C13.4479 15.4895 13.7439 15.6015 14.0957 15.6016C14.4637 15.6016 14.7604 15.4896 14.9844 15.2656C15.2082 15.0257 15.3202 14.7297 15.3203 14.3779C15.3203 13.6899 15.4397 13.0891 15.6797 12.5771C15.9356 12.0653 16.3202 11.6659 16.832 11.3779C17.344 11.0899 17.9924 10.9453 18.7764 10.9453C19.4162 10.9454 19.9519 11.09 20.3838 11.3779C20.8317 11.6499 21.176 12.0092 21.416 12.457C21.656 12.905 21.7764 13.3855 21.7764 13.8975C21.7764 14.6014 21.656 15.2013 21.416 15.6973C21.192 16.1772 20.8879 16.6092 20.5039 16.9932C20.136 17.3611 19.7282 17.7372 19.2803 18.1211C18.6083 18.6971 18.112 19.3613 17.792 20.1133C17.472 20.8492 17.3125 21.5294 17.3125 22.1533C17.3125 22.5053 17.4245 22.801 17.6484 23.041C17.8884 23.265 18.1841 23.3779 18.5361 23.3779C18.9041 23.3779 19.1998 23.265 19.4238 23.041C19.6478 22.801 19.7598 22.5053 19.7598 22.1533C19.7598 21.8173 19.84 21.3854 20 20.8574C20.16 20.3134 20.4483 19.8731 20.8643 19.5371C21.5041 19.0252 22.0724 18.5129 22.5684 18.001C23.0642 17.4731 23.4562 16.8814 23.7441 16.2256C24.0321 15.5696 24.1758 14.7935 24.1758 13.8975C24.1758 12.8575 23.936 11.9535 23.4561 11.1855C22.9921 10.4015 22.3521 9.79333 21.5361 9.36133C20.7362 8.91337 19.8162 8.6895 18.7764 8.68945Z" fill="#F4EFD1"/>
</svg>
