<svg width="48" height="62" viewBox="0 0 48 62" fill="none" xmlns="http://www.w3.org/2000/svg">
<path d="M24.0303 0C36.7174 9.56755e-05 47.002 9.11239 47.002 20.3525C47.0018 26.7275 43.6923 32.4158 38.5137 36.1475C37.8793 37.7856 39.4478 37.3418 41.7285 37.3418C46.1213 38.6912 47.206 42.9806 47.2061 47.0547C47.3848 55.9884 41.86 57.9719 39.0752 57.8467V48.3721C37.6163 45.6259 35.5352 46.763 35.5352 48.3721V55.4287C35.5347 59.3141 29.8136 61.3185 26.9531 61.835V49.2676C24.5505 46.295 22.1974 48.0288 21.3213 49.2676V61.835C17.5884 61.9205 13.5492 57.6 11.9961 55.4287V47.0547C10.0789 45.2848 8.13825 48.182 8.1377 49.2676V57.8467C7.26267 57.8224 4.8368 56.8984 2.13574 53.3984C-1.73215 47.8565 0.52412 42.6295 2.13574 40.709C6.57712 36.1593 7.47468 37.2207 8.46484 37.2207C9.28257 37.2206 9.39943 36.5531 9.24121 35.9238C4.23817 32.1905 1.05773 26.6013 1.05762 20.3525C1.05762 9.11233 11.3431 0 24.0303 0ZM17.8535 33.0322C16.0579 33.0324 14.6025 34.4885 14.6025 36.2842C14.6027 38.0797 16.058 39.535 17.8535 39.5352C19.6492 39.5352 21.1053 38.0798 21.1055 36.2842C21.1055 34.4884 19.6493 33.0322 17.8535 33.0322ZM29.3564 33.0322C27.5608 33.0324 26.1055 34.4885 26.1055 36.2842C26.1056 38.0797 27.5609 39.535 29.3564 39.5352C31.1521 39.5352 32.6082 38.0798 32.6084 36.2842C32.6084 34.4884 31.1522 33.0322 29.3564 33.0322Z" fill="#D1C699"/>
</svg>
